<?xml version="1.0" standalone="no"?>
<!DOCTYPE svg PUBLIC "-//W3C//DTD SVG 20010904//EN"
 "http://www.w3.org/TR/2001/REC-SVG-20010904/DTD/svg10.dtd">
<svg version="1.0" xmlns="http://www.w3.org/2000/svg"
 width="1024.000000pt" height="1024.000000pt" viewBox="0 0 1024.000000 1024.000000"
 preserveAspectRatio="xMidYMid meet">
<metadata>
Created by potrace 1.14, written by Peter Selinger 2001-2017
</metadata>
<g transform="translate(0.000000,1024.000000) scale(0.100000,-0.100000)"
fill="#000000" stroke="none">
<path d="M2165 10148 c-445 -338 -844 -740 -1147 -1158 -206 -284 -352 -521
-496 -805 -124 -244 -244 -528 -318 -755 -91 -276 -101 -308 -151 -515 l-48
-200 0 -1050 0 -1050 28 -120 c134 -562 354 -1132 612 -1584 36 -63 65 -116
65 -118 0 -6 137 -225 184 -292 79 -114 262 -357 340 -451 143 -173 420 -464
552 -580 22 -19 73 -65 114 -102 217 -193 585 -459 843 -607 223 -128 651
-336 887 -431 25 -10 84 -34 133 -53 l87 -36 0 494 0 495 -797 2 c-794 3 -798
3 -838 24 -61 33 -130 109 -157 173 l-23 56 -3 617 -3 618 -285 0 c-219 0
-292 3 -318 14 -36 15 -96 82 -96 107 0 9 32 84 71 165 132 278 142 299 182
384 21 47 61 132 89 190 28 58 77 164 110 235 33 72 77 166 98 210 21 44 54
114 73 155 74 158 177 373 373 778 52 107 94 201 94 211 0 9 -15 32 -33 51
-41 44 -232 269 -317 375 -36 44 -103 125 -150 179 -47 55 -129 151 -183 215
-114 136 -109 93 -42 391 24 107 78 349 120 537 64 293 197 837 290 1188 15
55 31 118 36 139 30 122 180 609 247 801 153 440 376 879 575 1133 l49 62
-364 0 -363 -1 -120 -91z"/>
<path d="M3120 9950 l0 -290 365 0 364 0 3 -66 c3 -63 4 -66 38 -84 108 -58
451 -251 550 -309 63 -38 176 -103 250 -146 74 -43 137 -80 140 -82 10 -9 -55
-50 -395 -250 -93 -55 -263 -152 -377 -217 l-208 -117 0 -154 0 -155 -367 -2
-368 -3 2 -245 c1 -135 2 -356 2 -492 l1 -248 510 0 510 0 0 439 0 439 88 49
c48 27 132 76 187 108 55 32 210 121 345 198 256 145 410 234 519 299 36 21
71 38 79 38 17 0 153 -74 352 -190 74 -43 191 -111 260 -150 69 -39 195 -112
280 -162 85 -50 193 -112 240 -138 l85 -48 3 -441 2 -441 515 0 515 0 -2 493
-3 492 -367 3 -368 2 0 154 0 154 -127 70 c-116 63 -221 124 -613 352 -166 97
-236 143 -236 155 -1 10 124 95 139 95 5 0 21 8 35 19 15 10 43 27 62 38 19
10 86 48 148 83 63 36 142 81 177 100 34 19 69 40 76 46 8 6 87 51 177 99
l162 87 0 64 0 64 368 2 367 3 3 288 2 287 -515 0 -515 0 0 -149 0 -149 -42
-17 c-24 -9 -133 -69 -243 -133 -110 -63 -285 -165 -390 -225 -371 -215 -542
-310 -552 -304 -5 2 -87 49 -183 104 -96 55 -269 154 -385 220 -115 66 -273
157 -350 202 -77 45 -175 99 -217 119 l-77 37 -1 148 0 147 -510 0 -510 0 0
-290z"/>
<path d="M7750 10234 c0 -4 15 -25 33 -48 107 -132 315 -484 434 -735 214
-450 469 -1154 628 -1731 8 -30 27 -95 41 -145 32 -114 209 -830 224 -910 7
-33 23 -105 36 -160 13 -55 39 -174 59 -265 19 -91 42 -192 50 -225 8 -33 33
-148 56 -255 22 -107 65 -305 95 -440 29 -135 67 -310 83 -390 24 -121 53
-258 77 -367 l4 -23 -575 0 -575 0 0 -1596 0 -1595 77 63 c42 35 142 126 222
203 532 517 966 1144 1272 1840 89 204 131 316 215 580 l29 90 0 1545 0 1545
-41 120 c-132 381 -234 624 -376 895 -191 363 -470 771 -746 1094 -249 291
-664 669 -961 878 l-54 38 -154 0 c-84 0 -153 -3 -153 -6z"/>
<path d="M3560 6007 c-20 -45 -110 -300 -235 -667 -40 -118 -100 -291 -133
-385 -33 -93 -72 -204 -85 -245 -42 -125 -360 -1034 -477 -1360 -29 -80 -76
-215 -105 -300 -29 -85 -65 -188 -79 -227 -14 -40 -26 -77 -26 -83 0 -16 675
-14 688 3 5 6 22 53 37 102 47 159 147 459 162 489 l15 29 162 -6 c88 -4 359
-7 602 -7 l440 0 101 -307 100 -308 346 -3 c211 -1 347 1 347 7 0 8 -123 360
-170 486 -113 305 -625 1769 -898 2573 l-86 252 -344 0 -343 0 -19 -43z m384
-960 c3 -19 54 -171 112 -338 58 -167 114 -331 124 -364 10 -33 43 -132 74
-219 31 -88 56 -165 56 -173 0 -11 -72 -13 -400 -13 -220 0 -400 3 -400 6 0 3
5 14 11 25 12 22 87 236 189 534 77 226 197 562 206 576 9 16 21 1 28 -34z"/>
<path d="M6702 5718 l3 -333 330 0 330 0 3 333 2 332 -335 0 -335 0 2 -332z"/>
<path d="M6700 3895 l0 -1165 333 2 332 3 0 1160 0 1160 -332 3 -333 2 0
-1165z"/>
</g>
</svg>
